<?xml version="1.0" standalone="no"?>
<!DOCTYPE svg PUBLIC "-//W3C//DTD SVG 20010904//EN"
 "http://www.w3.org/TR/2001/REC-SVG-20010904/DTD/svg10.dtd">
<svg version="1.0" xmlns="http://www.w3.org/2000/svg"
 width="889.000000pt" height="617.000000pt" viewBox="0 0 889.000000 617.000000"
 preserveAspectRatio="xMidYMid meet">

<g transform="translate(0.000000,617.000000) scale(0.100000,-0.100000)"
fill="#000000" stroke="none">
<path d="M3495 6131 c-151 -61 -292 -191 -367 -336 -25 -49 -51 -107 -58 -128
-7 -22 -17 -36 -23 -33 -49 20 -208 68 -277 83 -128 27 -348 24 -459 -5 -47
-13 -91 -27 -99 -31 -9 -5 26 -34 117 -95 234 -155 423 -319 566 -489 l48 -58
-93 -94 -93 -93 -63 52 c-130 107 -245 138 -354 97 -55 -21 -147 -89 -175
-128 -12 -17 -3 -15 54 14 l70 36 92 -32 c151 -53 272 -121 364 -206 l40 -36
-55 6 -55 6 163 -162 c89 -89 161 -163 159 -165 -2 -2 -39 10 -82 26 -43 16
-80 28 -82 26 -2 -2 57 -57 131 -122 74 -65 133 -120 132 -122 -2 -1 -40 13
-86 33 -77 33 -82 34 -68 13 37 -58 99 -170 96 -173 -2 -2 -38 18 -81 46 -76
48 -90 43 -32 -11 39 -36 113 -126 95 -115 -8 5 -33 23 -55 41 -70 56 -197
135 -290 179 -185 89 -345 110 -465 62 l-61 -25 -20 46 c-25 57 -58 194 -60
242 l-1 35 -9 -40 c-13 -63 -10 -155 6 -215 21 -77 17 -87 -6 -15 -29 92 -42
218 -36 330 4 55 9 111 12 125 l6 25 -15 -26 c-52 -89 -72 -302 -41 -424 18
-68 72 -188 102 -224 l20 -24 39 26 c36 26 131 63 139 56 2 -2 -16 -61 -40
-131 -82 -239 -121 -460 -132 -743 -6 -179 -6 -180 -35 -215 -15 -19 -28 -39
-28 -45 0 -6 18 -28 39 -49 33 -33 41 -48 47 -92 l6 -54 -98 -157 c-54 -87
-113 -181 -131 -210 l-33 -52 82 -103 c97 -121 289 -321 406 -424 46 -40 129
-104 185 -142 76 -52 125 -96 190 -169 125 -142 273 -274 437 -389 62 -43 88
-69 117 -117 106 -176 287 -374 397 -438 28 -16 54 -29 57 -29 4 0 3 17 -1 38
-4 20 -11 64 -14 97 l-7 60 86 -92 c200 -214 437 -368 652 -422 102 -26 164
-26 263 -1 217 55 409 176 618 386 67 69 122 118 122 110 0 -8 -5 -49 -11 -91
-6 -42 -8 -79 -5 -82 10 -11 126 75 205 151 88 86 206 234 259 327 23 41 48
67 99 101 161 111 320 252 445 395 52 59 111 116 141 134 189 116 439 352 639
603 l79 98 -17 27 c-10 14 -69 108 -132 209 l-113 182 6 54 c6 46 13 60 51 97
l43 43 -33 40 -33 41 -6 185 c-4 102 -13 232 -22 290 -21 140 -79 374 -121
485 -18 49 -32 91 -29 93 8 8 101 -29 139 -55 38 -25 40 -25 53 -7 26 34 70
127 92 194 52 158 44 337 -19 450 l-20 35 8 -55 c11 -84 4 -299 -11 -355 l-14
-50 4 85 c3 47 0 103 -5 125 l-10 40 -1 -41 c-1 -51 -34 -179 -60 -240 l-20
-45 -38 19 c-21 11 -51 22 -67 26 -50 12 -171 8 -235 -9 -132 -34 -315 -128
-456 -235 -34 -26 -69 -51 -76 -56 -15 -9 101 125 126 146 8 7 15 16 15 21 0
5 -35 -14 -77 -41 -42 -27 -79 -48 -81 -46 -1 2 18 39 43 82 26 44 51 87 56
96 7 14 -8 10 -72 -17 -44 -19 -79 -31 -77 -27 2 5 61 59 131 122 70 62 126
114 124 116 -2 2 -39 -10 -82 -26 -43 -16 -80 -28 -82 -26 -1 1 70 75 160 165
l162 162 -55 -6 -55 -6 40 37 c88 81 239 164 388 214 l69 22 68 -34 c81 -40
80 -23 -2 42 -90 72 -123 85 -213 85 -68 0 -88 -5 -137 -29 -31 -16 -86 -53
-121 -82 l-64 -53 -93 94 -93 93 82 96 c96 112 192 202 316 299 98 76 321 227
336 227 5 0 9 4 9 10 0 14 -119 48 -217 61 -160 21 -394 -10 -567 -75 -38 -15
-70 -25 -72 -24 -1 2 -14 34 -28 72 -54 143 -160 277 -285 360 -63 42 -177 95
-169 79 52 -105 71 -152 83 -209 17 -81 19 -212 5 -304 -13 -79 -50 -210 -60
-210 -4 0 -43 16 -86 36 -44 20 -153 61 -244 91 -91 30 -299 113 -462 184
l-297 131 -311 -137 c-171 -75 -356 -150 -413 -166 -56 -17 -162 -55 -235 -86
-73 -30 -135 -53 -138 -50 -2 2 -16 49 -30 103 -52 203 -41 399 31 549 18 38
33 71 32 71 -1 1 -20 -6 -42 -15z m-69 -123 c-7 -18 -16 -40 -20 -48 -3 -8 -3
0 0 19 l6 34 -37 -28 c-83 -64 -156 -172 -234 -345 l-11 -25 6 25 c11 51 85
187 134 247 41 51 152 153 165 153 2 0 -2 -15 -9 -32z m2431 -43 c106 -96 214
-283 228 -396 4 -39 3 -37 -10 14 -18 71 -72 190 -116 254 -43 64 -160 177
-169 163 -4 -6 -11 0 -18 15 -11 23 -10 25 6 16 9 -5 45 -35 79 -66z m16 -128
c103 -122 181 -286 194 -408 3 -33 7 -59 9 -59 2 0 32 20 68 45 79 55 189 108
272 129 34 9 65 16 68 16 4 0 -33 -46 -81 -102 -49 -57 -140 -170 -203 -253
-133 -174 -270 -320 -425 -449 -127 -107 -224 -178 -135 -100 86 76 240 227
240 236 0 4 -46 -29 -102 -73 -122 -95 -320 -229 -339 -229 -8 0 20 35 62 78
110 113 122 131 54 80 -33 -25 -107 -76 -165 -113 -58 -38 -120 -84 -139 -103
-19 -19 -61 -54 -94 -78 -54 -40 -63 -59 -16 -34 10 6 19 8 19 5 0 -12 -69
-35 -86 -28 -11 4 -15 2 -11 -4 6 -9 -21 -20 -98 -39 -11 -3 25 17 80 44 109
55 197 127 268 221 68 88 66 90 -12 23 -70 -60 -160 -125 -210 -152 -14 -7 44
54 128 136 236 228 371 406 476 626 99 207 140 413 116 591 -6 51 -14 104 -16
118 -3 13 2 5 9 -18 8 -23 39 -71 69 -106z m-2483 12 c-26 -187 20 -410 129
-627 103 -205 243 -385 473 -607 106 -102 132 -133 102 -116 -45 25 -132 90
-215 161 l-53 45 32 -46 c81 -119 186 -208 315 -270 68 -32 68 -35 2 -18 -27
7 -42 16 -38 22 4 6 0 8 -11 4 -17 -7 -86 16 -86 28 0 3 9 1 21 -5 46 -25 37
-2 -12 32 -30 20 -72 54 -95 76 -22 21 -87 70 -145 107 -57 37 -131 88 -164
114 l-60 46 42 -50 c23 -28 64 -72 92 -100 28 -27 51 -53 51 -57 0 -18 -282
174 -402 274 -129 107 23 -55 187 -201 96 -85 -5 -9 -140 105 -164 139 -266
248 -430 459 -77 99 -171 215 -209 259 l-69 78 34 -7 c106 -22 261 -93 340
-155 20 -17 40 -30 43 -30 3 0 6 13 6 28 0 109 90 310 196 436 35 42 64 83 64
93 0 9 3 14 6 11 3 -3 0 -44 -6 -89z m1001 -162 c7 -24 2 -28 -72 -67 -43 -23
-79 -37 -79 -33 0 4 25 19 55 31 64 28 93 48 83 57 -3 4 -37 -9 -75 -29 -61
-31 -195 -86 -212 -86 -3 0 57 36 134 79 77 43 144 78 149 77 6 -1 13 -14 17
-29z m582 -47 c75 -41 134 -76 133 -78 -5 -5 -137 48 -206 83 -78 39 -84 41
-77 21 4 -10 1 -13 -8 -10 -8 3 -12 12 -9 20 2 8 6 21 9 30 6 20 -3 23 158
-66z m53 -152 l82 -41 6 -71 c3 -39 6 -169 7 -290 l1 -218 -168 -196 c-93
-107 -172 -200 -176 -205 -4 -7 -21 -4 -48 8 -22 10 -71 24 -108 31 -37 6 -57
12 -44 13 21 1 22 5 22 95 0 90 -1 95 -22 99 -13 2 -1 5 25 6 27 0 62 -6 79
-15 31 -16 32 -16 52 9 12 13 66 77 121 142 55 64 100 123 99 131 0 8 -1 94
-2 192 l-2 177 -177 92 -178 91 -37 -19 c-21 -11 -38 -17 -38 -14 0 2 18 14
40 25 l40 20 0 70 c0 39 -2 70 -5 70 -3 0 -32 -14 -65 -30 -33 -17 -60 -28
-60 -25 0 2 30 20 67 39 l68 34 170 -90 c93 -49 207 -107 251 -130z m-2353
165 c3 -5 -34 -7 -81 -5 -153 4 -170 8 -45 10 67 1 124 -1 126 -5z m4040 0
c-35 -2 -91 -2 -125 0 -35 2 -7 3 62 3 69 0 97 -1 63 -3z m-4297 -11 c-3 -5
13 -19 34 -31 109 -61 251 -183 332 -285 40 -50 98 -155 98 -177 0 -6 -18 25
-41 70 -67 134 -222 284 -404 391 -59 34 -66 40 -42 40 16 0 26 -4 23 -8z
m322 1 c-10 -2 -26 -2 -35 0 -10 3 -2 5 17 5 19 0 27 -2 18 -5z m2222 -56 c0
-4 -27 6 -60 23 -33 17 -60 32 -60 35 0 7 119 -50 120 -58z m1538 56 c-10 -2
-26 -2 -35 0 -10 3 -2 5 17 5 19 0 27 -2 18 -5z m331 3 c-2 -2 -13 -8 -25 -14
-16 -9 -21 -8 -21 4 0 8 10 14 25 14 14 0 23 -2 21 -4z m-3999 -16 c20 -6 21
-8 5 -8 -11 0 -33 4 -50 8 -27 7 -27 8 -5 8 14 0 36 -4 50 -8z m3603 3 c-7 -2
-19 -2 -25 0 -7 3 -2 5 12 5 14 0 19 -2 13 -5z m-1973 -8 c0 -3 -49 -30 -110
-60 -60 -30 -110 -53 -110 -50 0 4 206 112 218 114 1 1 2 -1 2 -4z m1910 -5
c-34 -11 -60 -11 -35 0 11 5 29 8 40 8 16 0 15 -2 -5 -8z m-3446 -20 c61 -21
170 -79 163 -87 -3 -2 -26 10 -52 26 -26 17 -76 40 -111 51 -35 12 -64 24 -64
26 0 6 2 6 64 -16z m3846 15 c0 -2 -10 -9 -22 -15 -22 -11 -22 -10 -4 4 21 17
26 19 26 11z m-3643 -27 c-3 -8 -6 -5 -6 6 -1 11 2 17 5 13 3 -3 4 -12 1 -19z
m3143 2 c-8 -5 -19 -10 -25 -10 -5 0 -3 5 5 10 8 5 20 10 25 10 6 0 3 -5 -5
-10z m449 -4 c-2 -2 -33 -26 -69 -52 -140 -102 -252 -229 -306 -348 -28 -63
-43 -77 -19 -18 49 116 173 263 308 364 43 32 81 58 85 58 3 0 3 -2 1 -4z
m-490 -9 c-14 -12 -119 -68 -119 -64 0 7 102 66 114 67 5 0 7 -2 5 -3z m-3112
-39 c-3 -7 -5 -2 -5 12 0 14 2 19 5 13 2 -7 2 -19 0 -25z m1109 -36 c-2 -4
-32 -21 -65 -36 l-60 -29 -4 -121 -3 -121 -2 122 -2 123 68 34 c75 39 75 39
68 28z m284 -6 c0 -2 -7 -7 -16 -10 -8 -3 -12 -2 -9 4 6 10 25 14 25 6z m-60
-31 c0 -3 -36 -23 -80 -45 -44 -22 -80 -38 -80 -35 0 4 146 82 158 85 1 0 2
-2 2 -5z m-433 -107 c-5 -46 -13 -87 -18 -92 -5 -5 -6 7 -2 29 l6 39 -79 -56
c-68 -48 -133 -116 -134 -140 0 -4 37 18 83 50 45 32 89 62 97 66 41 23 -23
-26 -114 -88 l-98 -68 29 54 c17 29 43 76 58 103 16 28 62 80 103 118 41 37
76 67 77 67 0 0 -3 -37 -8 -82z m1241 10 c48 -45 83 -90 125 -162 31 -54 57
-101 57 -102 0 -3 -230 154 -242 165 -9 8 -22 161 -14 161 4 0 37 -28 74 -62z
m-990 1 c-15 -8 -18 -28 -20 -127 l-2 -117 -3 114 c-4 111 3 141 31 141 6 0 3
-5 -6 -11z m-272 -241 c-9 -75 -12 -84 -44 -112 -71 -63 -67 -63 -108 -1 -23
34 -34 59 -28 65 13 13 178 129 184 130 3 0 2 -37 -4 -82z m1303 15 l98 -67
-19 -31 c-11 -16 -27 -42 -36 -57 -10 -16 -20 -28 -23 -28 -4 0 -29 20 -56 45
-50 44 -50 45 -59 125 -6 44 -8 80 -6 80 2 0 48 -30 101 -67z m-1207 -131 l-3
-138 172 -201 172 -201 41 19 c23 10 50 19 61 18 16 0 -13 -12 -97 -42 -4 -1
-86 90 -182 201 l-176 204 0 132 c0 109 4 146 14 146 1 0 0 -62 -2 -138z
m-852 -233 c121 -95 267 -188 411 -263 68 -36 120 -66 115 -66 -18 0 -243 123
-341 187 -173 114 -398 298 -442 363 -9 14 26 -16 78 -65 52 -50 132 -120 179
-156z m1126 46 c96 -111 121 -134 138 -130 20 6 20 5 2 -6 -22 -13 -32 -4
-184 174 -59 69 -92 115 -91 130 1 20 2 19 9 -5 4 -15 61 -88 126 -163z m1774
95 c-47 -43 -86 -77 -88 -75 -2 2 18 23 44 47 26 23 64 59 83 78 20 19 38 34
41 32 3 -2 -33 -39 -80 -82z m-3687 23 c-7 -2 -19 -2 -25 0 -7 3 -2 5 12 5 14
0 19 -2 13 -5z m4331 -2 c4 -5 -3 -7 -14 -4 -23 6 -26 13 -6 13 8 0 17 -4 20
-9z m-4414 -11 c-34 -11 -60 -11 -35 0 11 5 29 8 40 8 16 0 15 -2 -5 -8z m217
-36 c52 -36 282 -266 423 -423 l74 -84 -52 33 c-52 32 -66 45 -35 33 34 -13
-10 38 -235 267 -144 146 -192 185 -255 207 -40 13 -40 13 -7 8 19 -3 58 -21
87 -41z m4146 39 c-7 -2 -21 -2 -30 0 -10 3 -4 5 12 5 17 0 24 -2 18 -5z m132
-3 c14 -7 8 -8 -20 -3 -22 3 -42 7 -44 9 -9 8 45 2 64 -6z m-230 -31 c-59 -38
-364 -341 -435 -433 -14 -18 -13 -19 3 -13 29 11 19 1 -40 -38 l-58 -38 95
104 c246 268 436 449 473 449 6 0 -11 -14 -38 -31z m-2675 -31 l22 -33 -26 30
c-14 16 -27 27 -30 24 -8 -7 45 -70 54 -64 5 3 18 -9 30 -26 20 -27 21 -34 10
-55 -8 -13 -17 -24 -21 -24 -10 0 -124 149 -118 154 9 7 45 25 51 26 4 0 16
-15 28 -32z m1333 21 c12 -7 24 -13 26 -15 5 -4 -107 -154 -116 -154 -7 0 -32
32 -33 43 0 5 5 5 12 1 8 -5 9 -2 5 9 -3 9 -1 19 5 23 7 5 8 2 3 -7 -5 -8 1
-5 13 5 26 22 30 45 5 25 -9 -8 -2 7 16 34 36 52 34 51 64 36z m708 -89 c-47
-41 -161 -124 -161 -116 0 2 40 34 90 70 49 37 92 71 95 76 3 6 9 10 13 10 4
-1 -13 -18 -37 -40z m-1842 -187 c45 -54 81 -102 81 -108 0 -5 -5 -17 -10 -25
-8 -12 -27 2 -100 75 -49 49 -90 93 -90 98 0 8 30 57 35 57 2 0 40 -44 84 -97z
m1001 43 c0 -14 -177 -192 -184 -185 -21 21 -5 55 69 144 l79 97 18 -22 c10
-12 18 -27 18 -34z m610 -21 c0 -12 -335 -195 -357 -195 -5 0 51 31 122 68 72
38 153 83 180 100 53 34 55 35 55 27z m-2122 -283 c154 -61 341 -108 481 -122
58 -6 107 -13 110 -16 3 -3 -58 -4 -137 -2 -78 1 -142 2 -142 2 0 -7 130 -45
183 -54 37 -7 67 -14 67 -17 0 -2 -25 -3 -55 -2 -30 1 -52 6 -50 10 3 4 -8 9
-23 12 -15 3 -88 18 -162 35 -74 16 -136 29 -138 27 -3 -2 127 -55 183 -73
l30 -10 -30 -1 c-77 -2 -306 73 -415 136 l-44 26 32 -38 c17 -22 29 -41 27
-44 -9 -9 -116 73 -161 123 l-46 51 32 -60 c48 -87 53 -95 73 -101 10 -3 16
-8 14 -11 -3 -2 -14 0 -24 5 -23 13 -107 157 -99 171 3 5 2 11 -3 13 -5 1 -22
31 -39 64 l-31 62 120 -68 c65 -37 177 -90 247 -118z m2226 91 c-87 -188 -110
-218 -184 -237 -14 -3 -2 4 25 17 44 21 54 33 89 98 l39 74 -51 -56 c-46 -50
-136 -119 -156 -119 -4 0 6 17 23 38 l30 39 -87 -43 c-106 -52 -211 -88 -315
-107 -93 -18 -90 -8 9 26 68 24 150 63 109 53 -50 -13 -260 -54 -263 -51 -2 2
19 11 47 20 28 9 51 17 51 18 0 1 -64 1 -142 0 -88 -1 -132 1 -113 6 17 5 49
9 71 10 195 5 534 117 759 250 55 32 101 59 102 60 1 1 -18 -43 -43 -96z
m-2794 -99 c198 -160 198 -160 108 -113 -43 22 -78 42 -78 45 0 3 9 0 21 -6
51 -28 22 5 -73 81 -112 89 -132 107 -108 94 8 -5 67 -50 130 -101z m762 82
c66 -29 225 -86 241 -86 6 0 -4 14 -23 31 l-35 31 40 -30 c22 -16 51 -35 63
-41 13 -7 21 -15 19 -18 -7 -7 -230 69 -307 105 -77 36 -76 42 2 8z m868 -11
c62 -31 100 -65 130 -118 16 -29 30 -59 30 -67 0 -8 -9 4 -20 28 -30 66 -66
106 -122 138 -45 25 -64 29 -128 29 -65 0 -82 -4 -130 -31 -154 -87 -188 -302
-70 -437 21 -24 57 -52 79 -62 23 -10 39 -20 37 -22 -10 -11 -87 41 -124 82
-168 191 -25 497 223 481 34 -2 76 -11 95 -21z m670 10 c-14 -8 -29 -14 -35
-14 -5 0 1 6 15 14 14 8 30 14 35 14 6 0 -1 -6 -15 -14z m860 11 c0 -2 -45
-40 -101 -86 -100 -81 -119 -106 -60 -75 17 8 31 13 31 11 0 -3 -39 -25 -86
-50 -48 -24 -82 -41 -78 -36 15 14 289 240 292 240 1 0 2 -2 2 -4z m-1094 -63
c-33 -31 -36 -35 -15 -30 13 4 35 9 49 12 32 7 -65 -29 -105 -39 -26 -6 -23
-2 20 27 28 19 57 42 64 51 7 9 16 16 20 16 3 0 -12 -17 -33 -37z m174 27 c-8
-5 -19 -10 -25 -10 -5 0 -3 5 5 10 8 5 20 10 25 10 6 0 3 -5 -5 -10z m-622
-24 c48 -25 92 -66 112 -107 11 -21 20 -42 20 -46 -1 -4 -10 10 -22 32 -11 22
-28 48 -37 59 -28 32 -95 65 -152 75 l-54 10 52 -4 c29 -2 65 -11 81 -19z
m-141 8 c-3 -3 -12 -4 -19 -1 -8 3 -5 6 6 6 11 1 17 -2 13 -5z m713 -3 c-8 -5
-26 -11 -40 -15 -21 -5 -20 -3 5 9 32 15 60 20 35 6z m-792 -30 c-65 -41 -100
-105 -109 -195 l-6 -71 -2 61 c-1 50 4 72 27 115 26 50 98 119 125 119 6 0
-10 -13 -35 -29z m-1392 -57 c18 -14 18 -14 -6 -3 -31 14 -36 19 -24 19 6 0
19 -7 30 -16z m3064 12 c0 -2 -7 -7 -16 -10 -8 -3 -12 -2 -9 4 6 10 25 14 25
6z m-2961 -144 c25 -22 24 -22 -26 3 -51 24 -72 41 -35 28 9 -3 -8 18 -38 47
l-55 52 64 -53 c35 -30 75 -64 90 -77z m2916 71 c-27 -25 -42 -43 -32 -40 34
12 16 -3 -35 -29 l-53 -26 50 43 c27 24 63 56 80 71 16 15 32 27 35 27 3 0
-17 -21 -45 -46z m1025 -28 c-7 -25 -15 -44 -17 -42 -2 3 2 25 9 50 6 26 14
44 16 42 3 -2 -1 -25 -8 -50z m-3610 5 c8 -5 11 -10 5 -10 -5 0 -17 5 -25 10
-8 5 -10 10 -5 10 6 0 17 -5 25 -10z m-1107 -7 c-13 -2 -33 -2 -45 0 -13 2 -3
4 22 4 25 0 35 -2 23 -4z m170 -29 c71 -24 52 -27 -22 -4 -34 11 -73 20 -86
20 -13 0 -26 4 -29 9 -7 11 73 -4 137 -25z m2243 -119 c-51 -132 -206 -193
-332 -130 -46 23 -114 94 -114 119 0 6 8 -2 19 -19 47 -76 117 -115 206 -115
65 0 114 22 162 72 43 45 63 95 65 170 l2 63 3 -60 c3 -38 -2 -74 -11 -100z
m52 78 c-6 -94 -28 -142 -92 -201 -43 -40 -93 -68 -103 -58 -2 2 9 8 26 14 41
14 109 78 133 126 14 27 23 67 26 119 2 42 7 77 10 77 2 0 2 -35 0 -77z m1945
70 c-13 -2 -33 -2 -45 0 -13 2 -3 4 22 4 25 0 35 -2 23 -4z m-4490 -10 c-7 -2
-21 -2 -30 0 -10 3 -4 5 12 5 17 0 24 -2 18 -5z m1302 -24 c28 -10 45 -18 39
-18 -14 -1 -134 40 -134 46 0 5 19 -1 95 -28z m2023 26 c-7 -8 -150 -55 -162
-54 -6 0 25 13 69 29 80 28 103 35 93 25z m1037 -10 c-33 -7 -73 -18 -89 -24
-16 -7 -31 -9 -33 -7 -8 8 120 45 152 45 19 -1 8 -6 -30 -14z m208 8 c-7 -2
-21 -2 -30 0 -10 3 -4 5 12 5 17 0 24 -2 18 -5z m-4653 -18 c-46 -18 -64 -17
-25 0 17 8 37 14 45 14 8 0 -1 -7 -20 -14z m4697 9 c-3 -3 -12 -4 -19 -1 -8 3
-5 6 6 6 11 1 17 -2 13 -5z m-3797 -61 c30 -31 42 -46 25 -33 -29 24 -91 90
-83 90 2 0 28 -26 58 -57z m358 27 c153 -47 691 -160 763 -160 10 0 27 -10 37
-22 60 -75 101 -111 160 -140 127 -63 267 -33 372 78 27 29 50 57 50 63 0 13
-3 12 220 51 238 43 421 83 568 127 l124 36 26 -28 c15 -15 21 -24 14 -20 -10
5 -9 -2 3 -25 21 -40 34 -147 17 -136 -7 4 -12 17 -12 29 0 16 -7 10 -29 -24
-28 -46 -99 -111 -111 -104 -3 2 -2 38 3 80 11 101 2 126 -23 62 -10 -27 -24
-54 -30 -62 -6 -8 -9 -19 -5 -25 4 -6 1 -9 -6 -8 -6 2 -14 -3 -17 -11 -3 -8 0
-11 7 -7 22 14 10 -5 -31 -50 -42 -45 -85 -74 -110 -74 -7 1 1 7 18 14 37 16
114 83 114 99 0 6 -15 -3 -33 -21 -18 -18 -36 -32 -40 -32 -4 0 -7 31 -7 69 0
38 -3 83 -6 100 l-6 31 -34 -56 c-18 -30 -31 -61 -28 -68 13 -33 -126 -177
-170 -176 -6 1 5 9 24 20 48 26 94 68 119 110 34 56 25 56 -38 -1 -32 -30 -78
-65 -101 -78 l-43 -23 6 29 c3 17 9 53 13 82 l7 51 -108 -55 c-112 -57 -274
-114 -385 -136 -84 -16 -316 -16 -400 0 -137 27 -309 91 -424 158 -32 18 -61
31 -64 28 -3 -3 0 -34 6 -69 17 -89 17 -88 -35 -58 -63 34 -152 124 -190 190
l-30 53 -7 -38 c-3 -21 -6 -66 -6 -100 0 -35 -4 -63 -10 -63 -5 0 -26 20 -46
45 -21 24 -41 42 -46 39 -4 -3 -5 3 -1 12 4 12 3 15 -5 10 -8 -4 -12 0 -13 11
0 10 -9 38 -20 63 l-19 45 3 -97 3 -96 -26 13 c-31 16 -66 53 -96 102 -19 32
-23 34 -24 16 0 -12 -4 -25 -10 -28 -15 -9 -12 56 5 106 l15 44 -25 -30 c-14
-16 -35 -54 -47 -84 l-22 -54 30 -24 c16 -14 61 -40 99 -59 39 -19 59 -32 45
-28 -41 10 -136 64 -160 89 l-23 24 23 56 c19 46 111 165 128 165 2 0 47 -13
100 -30z m2571 -7 c-18 -21 -44 -47 -58 -57 -14 -11 -1 6 29 37 62 65 78 75
29 20z m973 -2 c27 -14 48 -30 48 -34 0 -5 -13 1 -29 12 -16 12 -49 30 -73 41
-23 11 -32 17 -18 14 14 -4 46 -18 72 -33z m-1925 23 c-3 -3 -12 -4 -19 -1 -8
3 -5 6 6 6 11 1 17 -2 13 -5z m-2937 -8 c0 -2 -7 -7 -16 -10 -8 -3 -12 -2 -9
4 6 10 25 14 25 6z m2904 -4 c3 -5 -18 -9 -47 -10 -38 -1 -47 1 -32 8 26 11
72 12 79 2z m-2961 -21 c19 9 18 7 -3 -10 -23 -18 -26 -19 -32 -3 -10 26 -9
39 3 19 8 -14 14 -15 32 -6z m591 -21 c133 -78 266 -201 359 -332 22 -32 42
-56 45 -54 2 2 -1 21 -7 42 -6 21 -9 40 -6 42 7 7 27 -80 21 -94 -3 -8 -1 -14
4 -14 6 0 10 -10 10 -22 0 -15 -11 -3 -37 40 -91 149 -240 295 -395 385 -45
26 -78 47 -72 47 5 0 40 -18 78 -40z m1011 30 c13 -5 14 -9 5 -9 -8 0 -24 4
-35 9 -13 5 -14 9 -5 9 8 0 24 -4 35 -9z m2824 7 c-15 -12 -119 -66 -119 -62
0 6 103 65 114 65 5 0 7 -1 5 -3z m-1118 -23 c-25 -8 -61 -16 -80 -19 -20 -2
-7 4 29 14 75 22 117 26 51 5z m-1631 -4 c20 -6 21 -8 5 -8 -11 0 -29 3 -40 8
-25 11 1 11 35 0z m399 -56 c29 -11 32 -13 12 -14 -22 0 -121 55 -121 67 0 2
16 -5 36 -18 20 -12 53 -28 73 -35z m871 36 c-14 -11 -29 -20 -35 -21 -5 -1
15 -5 45 -9 l55 -7 -60 -1 c-33 -1 -73 -4 -90 -8 -20 -4 -8 6 35 29 76 41 84
44 50 17z m830 -63 c16 -33 30 -66 30 -73 0 -26 -111 -99 -180 -118 -14 -4 12
11 58 34 45 22 89 52 98 65 14 22 14 27 -5 70 -11 25 -30 60 -43 78 -14 21
-16 27 -5 19 9 -8 30 -41 47 -75z m-2043 67 c-3 -3 -12 -4 -19 -1 -8 3 -5 6 6
6 11 1 17 -2 13 -5z m-722 -35 c9 -17 15 -34 13 -39 -2 -5 -11 9 -20 30 -20
47 -15 53 7 9z m768 24 c-7 -2 -19 -2 -25 0 -7 3 -2 5 12 5 14 0 19 -2 13 -5z
m1400 0 c-7 -2 -19 -2 -25 0 -7 3 -2 5 12 5 14 0 19 -2 13 -5z m755 -18 c-6
-14 -13 -23 -15 -21 -5 5 15 46 22 46 3 0 -1 -11 -7 -25z m-2095 8 c-7 -2 -21
-2 -30 0 -10 3 -4 5 12 5 17 0 24 -2 18 -5z m1290 0 c-7 -2 -21 -2 -30 0 -10
3 -4 5 12 5 17 0 24 -2 18 -5z m-1225 -10 c-10 -2 -26 -2 -35 0 -10 3 -2 5 17
5 19 0 27 -2 18 -5z m1160 0 c-10 -2 -26 -2 -35 0 -10 3 -2 5 17 5 19 0 27 -2
18 -5z m1208 -16 c-129 -96 -255 -232 -328 -354 l-29 -48 7 45 c3 24 13 60 20
80 8 19 12 24 9 10 -20 -91 -20 -89 10 -45 43 63 129 166 177 211 44 43 149
124 158 123 3 0 -8 -10 -24 -22z m-2273 6 c-13 -2 -35 -2 -50 0 -16 2 -5 4 22
4 28 0 40 -2 28 -4z m-970 -56 c4 3 7 -2 7 -12 0 -16 -4 -14 -30 10 -16 16
-30 31 -30 34 0 2 10 -5 23 -17 13 -12 27 -19 30 -15z m2910 20 c12 10 9 3 -7
-15 -34 -37 -40 -36 -29 4 5 22 8 24 11 11 4 -18 5 -18 25 0z m33 -22 c-9 -14
-23 -36 -31 -49 -9 -13 -12 -26 -8 -28 5 -1 -12 -23 -37 -48 -48 -48 -49 -49
38 83 25 37 47 67 50 67 2 0 -3 -11 -12 -25z m-2946 -83 l41 -64 -40 34 c-22
18 -36 35 -30 36 5 2 0 20 -12 40 -35 58 -4 24 41 -46z m-363 30 l32 -27 -104
-105 c-100 -102 -104 -105 -114 -82 -15 32 -13 42 2 15 12 -22 15 -20 106 71
124 124 112 142 -25 36 l-104 -81 -11 27 c-21 56 -18 61 71 119 47 30 92 55
100 55 8 0 29 -12 47 -28z m3754 -28 c49 -31 89 -60 89 -65 0 -5 -11 -32 -24
-61 -12 -29 -26 -60 -29 -70 -4 -12 -30 9 -111 90 l-105 107 32 27 c18 15 38
27 46 28 7 0 53 -25 102 -56z m-3044 9 c-3 -10 -5 -4 -5 12 0 17 2 24 5 18 2
-7 2 -21 0 -30z m2190 -5 c-3 -7 -5 -2 -5 12 0 14 2 19 5 13 2 -7 2 -19 0 -25z
m-2545 -93 l30 -60 -26 25 c-15 13 -25 29 -22 36 2 6 -4 26 -15 43 -10 17 -19
35 -19 39 0 11 18 -17 52 -83z m645 -19 c21 -20 61 -48 88 -62 28 -14 39 -22
25 -18 -47 11 -127 72 -158 120 -18 26 -32 52 -32 58 1 6 9 -5 20 -25 10 -19
36 -52 57 -73z m1703 24 c-16 -59 -19 -46 -6 25 6 33 12 50 14 38 2 -12 -2
-40 -8 -63z m-1950 -27 c0 -2 -5 -3 -12 -3 -6 0 -9 3 -6 6 4 3 0 21 -8 39 -8
19 -14 40 -14 47 1 10 40 -79 40 -89z m93 6 c22 -16 35 -29 30 -29 -15 0 -102
79 -114 104 -6 11 2 6 17 -13 15 -18 45 -46 67 -62z m54 69 c-3 -8 -6 -5 -6 6
-1 11 2 17 5 13 3 -3 4 -12 1 -19z m1990 0 c-3 -8 -6 -5 -6 6 -1 11 2 17 5 13
3 -3 4 -12 1 -19z m395 -10 c-11 -18 -18 -38 -16 -44 3 -5 -8 -21 -22 -35
l-26 -24 22 45 c27 52 50 90 57 90 3 0 -4 -15 -15 -32z m-3120 -87 l30 -43
-127 -128 -128 -129 -28 44 c-16 25 -36 59 -45 76 l-16 32 118 118 118 119 24
-23 c13 -12 38 -42 54 -66z m3588 -156 c0 -5 -19 -40 -43 -77 l-42 -68 -129
129 -129 130 28 38 c15 21 40 50 54 66 l25 27 118 -117 c65 -65 118 -122 118
-128z m-1987 228 c-7 -2 -19 -2 -25 0 -7 3 -2 5 12 5 14 0 19 -2 13 -5z m100
0 c-7 -2 -21 -2 -30 0 -10 3 -4 5 12 5 17 0 24 -2 18 -5z m1012 -13 c-5 -15
-2 -20 12 -21 14 0 12 -2 -6 -10 -31 -12 -34 -8 -20 25 14 31 23 35 14 6z
m-1968 -12 c-3 -8 -6 -5 -6 6 -1 11 2 17 5 13 3 -3 4 -12 1 -19z m375 -54 c35
-18 59 -34 55 -34 -14 0 -101 47 -123 66 -11 11 -14 15 -7 11 6 -5 40 -24 75
-43z m1117 40 c-7 -8 -26 -22 -43 -31 -36 -18 -30 -10 16 23 39 28 45 29 27 8z
m-1465 -53 c-6 -6 -11 1 -18 29 l-7 25 15 -25 c8 -14 12 -27 10 -29z m243 17
c-3 -8 -6 -5 -6 6 -1 11 2 17 5 13 3 -3 4 -12 1 -19z m1238 -37 l-15 -31 32 5
33 5 -34 -11 c-18 -5 -35 -8 -37 -6 -2 2 4 22 14 45 9 23 18 37 20 32 2 -5 -4
-22 -13 -39z m265 29 c0 -5 -5 -10 -11 -10 -5 0 -7 5 -4 10 3 6 8 10 11 10 2
0 4 -4 4 -10z m-380 -15 c-14 -8 -29 -14 -35 -14 -5 0 1 6 15 14 14 8 30 14
35 14 6 0 -1 -6 -15 -14z m-1091 -53 c-4 -2 -22 2 -41 7 l-33 11 33 -5 c29 -4
32 -3 22 15 -17 32 -11 37 9 5 10 -16 15 -31 10 -33z m1031 28 c-8 -5 -22 -9
-30 -9 -10 0 -8 3 5 9 27 12 43 12 25 0z m-780 -20 c20 -6 21 -8 5 -8 -11 0
-29 3 -40 8 -25 11 1 11 35 0z m715 0 c-11 -5 -29 -8 -40 -8 -16 0 -15 2 5 8
34 11 60 11 35 0z m-652 -17 c-7 -2 -19 -2 -25 0 -7 3 -2 5 12 5 14 0 19 -2
13 -5z m580 0 c-7 -2 -19 -2 -25 0 -7 3 -2 5 12 5 14 0 19 -2 13 -5z m-515
-10 c-10 -2 -26 -2 -35 0 -10 3 -2 5 17 5 19 0 27 -2 18 -5z m465 0 c-7 -2
-21 -2 -30 0 -10 3 -4 5 12 5 17 0 24 -2 18 -5z m-1794 -52 c13 -40 14 -72 3
-68 -5 1 -57 -44 -117 -101 l-108 -102 23 -25 24 -26 93 93 c74 73 93 99 94
123 l2 30 4 -29 c4 -26 -7 -41 -93 -127 l-98 -99 -53 52 c-29 29 -53 57 -53
63 0 15 253 266 261 257 3 -4 11 -22 18 -41z m1414 42 c-13 -2 -33 -2 -45 0
-13 2 -3 4 22 4 25 0 35 -2 23 -4z m300 0 c-13 -2 -33 -2 -45 0 -13 2 -3 4 22
4 25 0 35 -2 23 -4z m867 2 c0 -3 -14 -14 -31 -24 l-32 -20 39 -7 c21 -3 51
-13 66 -20 29 -15 68 -60 68 -78 0 -6 -5 -3 -10 6 -11 18 -71 58 -88 58 -5 0
-9 -8 -8 -17 1 -16 -8 -18 -79 -15 -44 2 -93 -1 -110 -7 l-30 -11 24 20 23 20
-53 0 c-102 0 -248 -45 -318 -97 -30 -23 -32 -24 -22 -5 18 34 13 35 -36 7
l-48 -26 25 26 c48 51 169 91 330 110 92 11 224 45 255 65 35 22 35 22 35 15z
m762 -288 c-15 -16 -40 -43 -56 -59 l-29 -30 -99 99 -99 98 6 55 c4 30 14 72
22 93 l16 39 133 -133 134 -133 -28 -29z m-2697 235 c28 -7 107 -21 177 -32
172 -27 259 -58 299 -107 13 -15 12 -15 -8 -5 -12 7 -34 17 -49 23 -28 10 -28
10 -9 -10 25 -28 15 -26 -42 8 -73 45 -162 71 -266 76 -63 4 -85 2 -71 -4 35
-15 41 -33 7 -20 -15 6 -64 9 -108 7 -71 -3 -80 -1 -79 15 1 9 -3 17 -10 17
-16 0 -63 -33 -81 -56 -15 -19 -15 -19 -9 1 18 53 68 84 159 95 6 0 -2 8 -17
16 -42 22 -33 26 15 5 23 -10 65 -23 92 -29z m933 41 c-21 -2 -55 -2 -75 0
-21 2 -4 4 37 4 41 0 58 -2 38 -4z m-82 -77 c33 -11 46 -11 84 0 62 19 73 16
25 -7 -22 -10 -51 -18 -65 -18 -14 0 -43 8 -65 18 -47 23 -34 27 21 7z m-1868
-131 c46 -89 43 -98 -50 -193 l-83 -83 50 19 c28 10 59 23 70 27 11 4 23 7 28
7 4 -1 7 3 7 9 0 6 7 8 16 5 8 -3 13 -2 10 2 -3 5 8 13 25 19 35 13 35 14 8
-31 -23 -39 -32 -46 -23 -18 6 18 -38 -30 -56 -60 -9 -16 -6 -16 35 2 49 21
56 14 27 -28 -37 -54 -37 -56 -6 -49 16 3 38 9 48 13 20 8 20 -3 0 -63 -3 -10
10 10 30 45 20 34 36 65 36 68 0 3 -13 -4 -30 -16 -16 -12 -30 -19 -30 -16 0
3 21 19 47 37 l46 32 -43 -79 c-24 -43 -52 -87 -62 -98 -11 -10 -17 -20 -14
-23 6 -6 24 5 84 54 l39 32 -39 -74 c-22 -41 -41 -75 -44 -75 -2 0 7 22 21 50
14 27 25 52 25 56 0 11 -30 -18 -30 -30 -1 -6 -11 -23 -23 -38 l-22 -27 -112
85 -113 85 -41 -23 -41 -23 -49 55 c-26 30 -49 61 -49 68 0 7 7 27 16 44 l16
31 -30 -22 c-17 -11 -33 -21 -36 -21 -2 0 4 25 15 57 27 79 24 78 -22 -5 -22
-40 -39 -77 -37 -82 2 -5 41 -43 86 -84 l84 -76 39 20 c21 11 39 18 39 15 0
-2 -18 -14 -40 -25 l-41 -21 -89 83 c-50 45 -90 86 -90 91 0 5 26 56 58 115
32 59 63 118 68 130 5 13 52 54 104 92 l95 67 23 -41 c13 -22 36 -63 50 -91z
m4041 31 c42 -30 103 -127 94 -151 -2 -6 6 -37 16 -68 11 -31 17 -57 14 -57
-4 0 -18 10 -31 23 l-25 22 7 -25 c18 -60 17 -65 -32 -119 l-48 -53 -42 21
-43 22 -111 -86 -112 -85 -23 28 c-12 15 -22 32 -23 38 0 6 -7 17 -15 24 -23
19 -18 0 19 -63 l33 -58 59 43 c146 107 164 119 164 114 0 -12 -224 -166 -230
-159 -4 4 -27 44 -51 88 -44 82 -43 83 29 23 18 -16 37 -28 42 -28 5 0 0 25
-12 55 -11 31 -19 58 -16 60 3 3 19 0 36 -6 48 -16 55 -8 27 33 -35 52 -31 60
20 38 25 -11 45 -17 45 -14 0 13 -64 83 -71 78 -4 -2 -15 9 -23 25 l-16 29 30
-11 c16 -6 27 -14 24 -19 -3 -4 2 -5 10 -2 9 3 16 1 16 -5 0 -6 3 -10 8 -9 4
0 14 -2 22 -5 8 -3 39 -15 67 -26 l53 -19 -80 87 c-60 66 -78 93 -76 112 1 13
24 66 51 116 l49 92 51 -36 c27 -20 70 -51 94 -67z m-3637 -131 c-2 -24 -8
-43 -13 -42 -4 1 -24 -20 -44 -48 l-35 -49 26 -14 c14 -7 28 -11 31 -9 2 3 8
27 13 54 4 26 8 37 9 23 0 -14 -2 -42 -5 -62 l-6 -37 -47 24 c-96 49 -96 44
-11 129 41 42 77 76 80 76 3 0 4 -20 2 -45z m3164 -114 c-4 -6 -34 -25 -67
-41 l-59 -30 1 27 c1 17 3 21 6 11 2 -10 7 -18 9 -18 5 0 46 20 53 26 2 1 -18
30 -43 63 -33 43 -46 69 -46 93 l0 33 76 -76 c45 -45 74 -81 70 -88z m-3507
121 l20 -29 -57 -48 -57 -47 49 48 c49 48 49 48 33 76 -21 36 -14 36 12 0z
m3716 2 c-17 -26 -17 -27 27 -72 l43 -45 -52 43 -51 43 21 29 c26 35 35 37 12
2z m415 -114 c16 -33 30 -63 30 -68 0 -5 -40 -45 -90 -91 l-89 -82 -41 21
c-22 11 -40 23 -40 25 0 3 18 -4 40 -15 l39 -20 86 77 c47 43 85 81 85 86 0 4
-14 34 -30 67 -17 33 -28 60 -25 60 2 0 18 -27 35 -60z m-753 -2 c-2 -13 -4
-5 -4 17 -1 22 1 32 4 23 2 -10 2 -28 0 -40z m-3309 -67 c-18 -27 -35 -48 -37
-46 -2 2 6 17 18 33 12 17 21 35 21 40 0 9 9 16 28 21 1 1 -12 -21 -30 -48z
m3610 19 c3 0 3 -3 0 -6 -4 -3 -16 -1 -27 6 -26 13 -26 6 -3 -28 25 -37 34
-52 29 -52 -2 0 -21 25 -41 55 l-37 55 37 -15 c20 -8 39 -15 42 -15z m-3628 0
c-8 -5 -19 -10 -25 -10 -5 0 -3 5 5 10 8 5 20 10 25 10 6 0 3 -5 -5 -10z
m3600 -86 c0 -3 -14 5 -31 17 -18 12 -30 18 -28 13 2 -5 17 -34 33 -64 39 -76
18 -50 -29 34 l-37 69 46 -32 c25 -18 46 -34 46 -37z m-4053 -159 c-9 -20 -17
-37 -17 -39 0 -2 34 -25 76 -51 54 -34 78 -44 84 -36 26 43 97 119 107 116 7
-2 48 -29 92 -60 l80 -56 -57 -108 c-31 -59 -61 -110 -65 -112 -4 -2 -120 79
-257 180 l-249 184 52 68 52 67 60 -59 59 -58 -17 -36z m4661 83 l52 -66 -32
-22 -33 -22 26 24 25 24 -44 54 c-70 86 -85 77 -31 -17 17 -30 29 -56 27 -58
-19 -19 -386 -268 -397 -269 -12 -1 -100 127 -101 147 0 4 26 24 58 44 70 44
65 40 58 52 -4 6 -41 -12 -91 -45 l-84 -56 15 -29 c8 -16 12 -29 10 -29 -3 0
-12 13 -21 30 l-15 29 90 61 90 61 31 -36 c25 -29 57 -68 75 -94 3 -4 154 89
154 95 0 2 -8 19 -17 39 l-17 35 59 60 c32 33 59 58 60 57 1 -1 25 -32 53 -69z
m-4279 -91 c35 -26 69 -44 74 -40 6 3 7 1 3 -6 -4 -6 -13 -8 -19 -4 -28 16
-217 155 -217 160 0 2 21 -11 48 -30 26 -19 76 -55 111 -80z m1455 50 c28 -12
28 -13 -35 -26 -34 -7 -89 -26 -120 -42 -59 -29 -129 -90 -129 -111 0 -6 -3
-9 -6 -6 -3 4 2 20 11 38 l16 31 -38 -8 c-65 -14 -224 -9 -263 8 -35 16 -34
16 55 15 85 0 195 18 195 32 0 4 -21 8 -46 10 -48 2 -151 35 -168 53 -8 7 0 8
29 3 22 -5 85 -8 140 -8 58 0 89 -2 75 -7 -24 -7 -24 -7 5 -8 17 0 59 8 95 18
75 23 143 25 184 8z m1011 -7 c38 -11 83 -20 100 -19 29 1 29 1 5 8 -14 4 25
7 85 7 61 0 127 6 148 12 47 13 47 8 -1 -17 -50 -26 -112 -42 -168 -43 -27 0
-42 -4 -36 -10 17 -17 138 -36 212 -33 l75 3 -35 -16 c-39 -19 -208 -24 -268
-9 l-33 9 21 -44 c24 -46 19 -44 -23 14 -33 44 -143 102 -229 120 l-60 12 34
12 c49 18 95 16 173 -6z m-2204 -25 c12 8 11 -2 -2 -26 -5 -11 -11 -30 -13
-42 -1 -12 -6 -35 -11 -50 -6 -25 -11 -28 -34 -22 -14 4 -29 10 -33 13 -4 4
12 41 34 82 28 49 43 69 46 57 2 -9 8 -15 13 -12z m3282 -50 c33 -68 35 -76
20 -82 -10 -3 -32 -12 -50 -19 -27 -11 -32 -10 -37 3 -4 9 -4 18 -1 21 3 3 5
0 5 -6 0 -7 7 -12 16 -12 12 0 15 6 9 23 -3 12 -8 35 -11 50 -2 15 -8 36 -14
47 -14 26 -13 30 5 24 11 -5 13 -2 9 10 -3 9 -2 16 3 16 5 0 25 -34 46 -75z
m-3255 -37 c-23 -70 -32 -85 -42 -69 -4 6 -3 11 2 11 6 0 15 14 21 31 14 41
14 52 -1 43 -7 -4 -2 5 11 19 14 15 26 27 27 27 2 0 -7 -28 -18 -62z m3173 35
c13 -14 19 -23 12 -20 -6 4 -13 2 -15 -3 -2 -6 -8 3 -15 20 -6 16 -10 30 -9
30 1 0 13 -12 27 -27z m789 3 c-15 -14 -394 -295 -417 -309 -8 -5 -25 18 -53
73 -22 44 -38 80 -35 80 3 0 22 -34 43 -75 l37 -75 125 93 c69 51 166 123 215
159 87 65 115 83 85 54z m-4607 -236 c5 -4 -14 -44 -42 -89 -28 -44 -51 -82
-51 -84 0 -2 29 -29 64 -60 l64 -57 69 63 c37 34 75 68 85 75 14 11 32 5 121
-40 58 -28 103 -56 100 -61 -3 -5 -8 -5 -12 1 -7 10 -186 102 -198 101 -5 0
31 -20 79 -45 l88 -44 -21 -53 c-11 -28 -28 -70 -38 -92 l-17 -40 -29 30 c-15
17 -25 23 -21 15 4 -8 -1 -4 -12 9 -10 13 -24 21 -30 17 -6 -3 -14 -1 -18 5
-4 8 -3 9 4 5 7 -4 12 -5 12 -3 0 2 -18 17 -41 31 -39 26 -42 27 -60 10 -11
-10 -18 -23 -15 -30 3 -7 -5 -20 -17 -31 l-22 -18 20 25 20 24 -31 -24 c-28
-23 -38 -50 -12 -34 7 5 8 2 3 -6 -6 -9 -30 10 -84 66 -42 44 -113 119 -159
166 l-84 87 62 95 61 94 77 -50 c42 -28 81 -54 85 -58z m511 81 c-1 -24 6 -27
24 -9 19 19 14 2 -18 -67 -36 -76 -35 -75 -10 -75 11 0 26 12 35 30 18 35 19
43 3 34 -7 -4 0 7 16 24 17 18 31 32 33 32 1 0 -12 -29 -29 -65 -29 -59 -35
-65 -64 -65 -17 0 -52 -6 -78 -14 l-46 -14 57 109 c53 103 79 130 77 80z
m3508 -73 c29 -57 54 -106 56 -110 2 -3 -18 0 -44 8 -26 8 -61 14 -78 14 -29
0 -35 6 -64 65 -17 36 -30 65 -29 65 2 0 19 -17 38 -37 18 -20 26 -31 17 -24
-22 16 -23 9 -3 -29 9 -18 24 -30 35 -30 25 0 25 11 0 61 -32 62 -44 97 -29
82 18 -18 32 -16 25 3 -7 18 0 34 14 34 6 0 33 -46 62 -102z m667 -5 l53 -83
-153 -164 c-85 -90 -157 -163 -160 -162 -4 0 -26 26 -50 56 -25 33 -32 45 -16
31 15 -14 27 -20 27 -14 0 5 -11 19 -23 32 l-24 22 -24 -22 c-17 -15 -19 -19
-6 -15 24 7 21 -1 -4 -15 -17 -8 -20 -8 -14 1 5 8 3 11 -6 8 -8 -3 -14 -10
-14 -15 0 -6 -4 -15 -9 -20 -5 -5 -6 -3 -2 5 14 24 -14 11 -47 -22 -18 -18
-59 -49 -90 -69 -45 -29 -57 -33 -57 -20 0 9 3 13 7 10 5 -5 34 8 80 38 2 1
-12 41 -31 89 l-34 87 86 44 c48 24 84 44 79 44 -4 1 -52 -21 -107 -49 -55
-27 -103 -50 -107 -49 -9 0 198 108 209 108 5 1 41 -31 82 -70 l75 -70 70 51
c39 28 71 54 71 56 0 2 -23 41 -50 86 -28 44 -49 82 -48 83 2 2 39 28 83 58
59 41 83 52 91 44 6 -7 34 -49 63 -94z m-4912 -316 l-24 -73 103 -120 c56 -65
106 -117 110 -114 5 3 43 58 87 123 54 81 82 115 91 110 95 -58 246 -158 246
-163 0 -4 -57 30 -127 76 -121 79 -128 82 -141 63 -7 -10 -10 -23 -7 -29 3 -5
44 -37 91 -72 l86 -62 -6 -55 -7 -56 28 48 c15 27 29 44 31 39 3 -10 -56 -353
-62 -359 -6 -7 -168 115 -261 197 -53 46 -134 125 -179 175 -87 94 -216 251
-216 262 0 3 25 36 55 74 59 73 62 81 41 98 -11 9 -24 -6 -70 -80 l-57 -91 77
-96 c43 -53 152 -171 243 -262 142 -142 213 -204 351 -303 24 -17 24 -17 -8 0
-115 62 -435 365 -595 564 l-78 97 62 100 61 101 50 -60 50 -59 -25 -73z
m5046 87 l58 -96 -28 -37 c-105 -137 -314 -360 -443 -472 -71 -61 -208 -162
-252 -185 -27 -14 -28 -13 -28 8 0 18 2 20 10 8 7 -12 22 -6 82 35 190 130
444 380 636 626 11 15 6 29 -34 95 -63 106 -69 112 -83 85 -10 -19 -5 -30 45
-91 66 -82 70 -63 -53 -212 -115 -140 -294 -312 -426 -412 -65 -48 -120 -87
-122 -85 -4 5 -65 344 -65 361 0 7 11 -4 24 -25 34 -56 38 -56 31 -2 l-7 50
91 68 c50 37 91 71 91 75 0 5 -6 16 -12 25 -12 15 -25 8 -136 -63 -67 -44
-126 -80 -130 -80 -4 0 52 38 123 85 101 65 133 81 142 72 6 -7 45 -63 86
-125 l74 -113 88 103 c49 57 96 112 106 123 18 20 17 23 -7 89 -13 38 -23 72
-22 76 5 12 92 110 97 110 4 0 32 -43 64 -96z m-4307 39 c6 -32 8 -35 16 -18
5 12 6 -20 3 -77 -6 -93 -5 -98 14 -98 11 0 22 8 24 18 4 13 5 11 6 -5 1 -20
-4 -23 -31 -22 -61 2 -83 13 -81 39 1 14 5 64 8 113 5 64 10 87 20 87 8 0 17
-16 21 -37z m3469 -40 c12 -152 13 -146 -15 -154 -36 -10 -90 -10 -90 0 0 4
12 6 26 3 l26 -5 -6 99 c-3 55 -3 91 0 81 8 -26 24 -10 24 24 0 18 5 29 14 29
11 0 16 -20 21 -77z m-3120 -67 c-39 -89 -79 -276 -58 -276 4 0 19 21 33 47
25 47 174 213 192 213 10 0 -42 -73 -57 -79 -19 -8 -86 -86 -130 -149 -38 -57
-43 -61 -49 -40 -3 13 -6 34 -6 48 -1 24 -1 24 -15 -5 -13 -27 -14 -27 -10 -5
3 14 6 57 9 97 2 40 10 80 18 91 17 24 92 112 95 112 1 0 -9 -24 -22 -54z
m2795 -48 c23 -31 27 -48 29 -105 1 -37 4 -79 6 -93 4 -17 0 -13 -9 10 l-14
35 -1 -30 c-1 -16 -4 -40 -7 -53 -6 -21 -11 -16 -50 41 -23 36 -74 97 -113
136 -39 40 -71 78 -71 84 1 20 164 -156 190 -206 14 -26 29 -47 33 -47 24 0
-22 206 -65 295 l-19 40 32 -35 c17 -19 43 -52 59 -72z m-3093 40 c-2 -13 -4
-5 -4 17 -1 22 1 32 4 23 2 -10 2 -28 0 -40z m988 42 c16 -7 12 -9 -20 -10
-59 -1 -122 -33 -146 -75 -12 -19 -23 -35 -25 -35 -11 0 29 98 47 113 23 18
107 23 144 7z m1500 -14 c13 -13 29 -43 35 -66 12 -44 7 -68 -5 -29 -4 13 -14
29 -21 37 -8 7 -14 19 -14 25 0 13 -85 37 -135 38 -53 1 3 18 63 18 43 1 57
-3 77 -23z m842 -53 c-2 -16 -4 -3 -4 27 0 30 2 43 4 28 2 -16 2 -40 0 -55z
m160 5 c-2 -13 -4 -3 -4 22 0 25 2 35 4 23 2 -13 2 -33 0 -45z m-3650 -10 c-2
-13 -4 -3 -4 22 0 25 2 35 4 23 2 -13 2 -33 0 -45z m-237 -4 c0 -2 -9 0 -20 6
-11 6 -20 13 -20 16 0 2 9 0 20 -6 11 -6 20 -13 20 -16z m3897 -81 c-2 -16 -4
-5 -4 22 0 28 2 40 4 28 2 -13 2 -35 0 -50z m-1628 39 c-95 -22 -282 -25 -383
-5 l-90 18 264 0 c235 0 257 -1 209 -13z m1811 13 c0 -2 -10 -9 -22 -15 -22
-11 -22 -10 -4 4 21 17 26 19 26 11z m-3853 -67 c-2 -13 -4 -5 -4 17 -1 22 1
32 4 23 2 -10 2 -28 0 -40z m-7 -41 c0 -4 -18 5 -40 19 -52 34 -52 41 0 12 22
-13 40 -26 40 -31z m104 27 c3 -9 6 -25 7 -37 0 -21 1 -21 9 -2 10 24 11 -48
1 -141 l-6 -60 -33 8 -34 9 6 60 c3 32 9 86 12 119 6 59 24 80 38 44z m3510
-26 c3 -24 8 -77 11 -119 l6 -77 -32 -11 c-58 -20 -116 -9 -77 15 7 4 8 3 4
-4 -5 -8 1 -12 14 -12 21 0 22 2 16 108 -3 59 -3 99 0 90 9 -31 24 -20 24 17
0 53 27 47 34 -7z m-2417 -18 c26 -18 43 -24 46 -17 2 7 22 -4 47 -26 24 -20
47 -37 52 -37 4 0 26 -29 49 -65 45 -72 58 -80 33 -20 -15 36 -14 37 3 31 10
-4 47 -17 82 -28 l63 -20 -6 -39 c-8 -49 -1 -50 19 -3 l15 36 62 -9 c35 -4
115 -8 178 -8 63 0 143 4 178 8 l62 9 15 -36 c20 -47 28 -46 20 3 l-6 39 68
21 c37 12 74 25 80 27 10 4 9 -5 -2 -35 -8 -23 -13 -41 -11 -41 2 0 21 26 42
58 42 65 142 151 154 133 5 -9 10 -8 18 2 6 7 34 24 61 37 61 28 81 18 81 -42
0 -160 -182 -272 -485 -299 -162 -14 -167 -20 -13 -16 l127 4 13 -76 12 -76
13 79 c6 43 13 79 15 80 2 2 39 12 83 25 44 12 87 24 96 27 23 8 50 -66 56
-153 8 -108 -19 -127 -110 -79 l-45 25 1 -44 c1 -24 -1 -47 -6 -51 -8 -8 -145
21 -184 39 -22 10 -42 57 -44 102 l0 20 -9 -20 c-5 -11 -9 -32 -9 -47 -1 -31
-2 -32 -53 -18 -31 9 -37 15 -40 43 l-4 32 -11 -25 -11 -25 -152 1 c-153 0
-153 0 -164 25 -10 24 -10 24 -14 -8 -3 -28 -9 -34 -40 -43 -52 -14 -52 -14
-52 24 0 49 -16 53 -24 7 -3 -22 -13 -46 -21 -55 -18 -18 -111 -46 -163 -49
l-37 -2 -3 48 -3 47 -43 -25 c-52 -30 -91 -32 -106 -6 -27 52 13 239 50 234
17 -3 173 -45 178 -49 2 -1 9 -37 16 -80 l12 -79 13 76 13 77 127 -5 c69 -3
124 -3 121 0 -3 3 -61 10 -130 16 -210 18 -353 71 -431 159 -53 61 -73 137
-48 184 13 25 46 18 106 -22z m2330 -117 c-2 -16 -4 -5 -4 22 0 28 2 40 4 28
2 -13 2 -35 0 -50z m-3370 20 c-3 -10 -5 -4 -5 12 0 17 2 24 5 18 2 -7 2 -21
0 -30z m3540 -25 c-2 -13 -4 -5 -4 17 -1 22 1 32 4 23 2 -10 2 -28 0 -40z
m-3710 -10 c-2 -13 -4 -5 -4 17 -1 22 1 32 4 23 2 -10 2 -28 0 -40z m980 -60
c8 -40 19 -77 23 -82 11 -11 30 34 30 72 l1 27 15 -29 c14 -25 54 -190 54
-223 0 -24 -38 -13 -71 20 l-32 32 6 -31 c3 -18 9 -45 12 -60 3 -19 -4 -11
-21 25 -20 40 -28 75 -32 137 -2 46 -8 84 -12 84 -4 0 -15 -25 -25 -55 -11
-30 -21 -53 -23 -50 -6 5 17 114 35 167 9 26 19 46 21 44 2 -2 10 -37 19 -78z
m1791 20 c11 -35 22 -85 26 -113 l6 -50 -22 58 c-12 31 -25 57 -29 57 -3 0 -7
-25 -8 -55 -1 -72 -17 -138 -42 -183 -11 -21 -18 -29 -15 -19 4 10 9 37 13 60
l6 42 -30 -32 c-31 -33 -73 -44 -73 -20 1 24 30 152 47 202 l17 50 10 -48 c6
-27 16 -48 21 -48 10 -1 28 56 40 124 3 20 8 37 10 37 2 0 13 -28 23 -62z
m-2588 2 c0 -25 -4 -30 -22 -29 -17 1 -19 2 -5 6 10 3 17 14 17 29 0 13 2 24
5 24 3 0 5 -13 5 -30z m-193 -52 c-2 -13 -4 -3 -4 22 0 25 2 35 4 23 2 -13 2
-33 0 -45z m3730 10 c-2 -13 -4 -5 -4 17 -1 22 1 32 4 23 2 -10 2 -28 0 -40z
m10 -90 c-2 -13 -4 -3 -4 22 0 25 2 35 4 23 2 -13 2 -33 0 -45z m-3750 0 c-2
-13 -4 -5 -4 17 -1 22 1 32 4 23 2 -10 2 -28 0 -40z m110 46 c20 -5 21 -11 17
-58 -5 -48 -4 -50 10 -32 15 19 16 16 15 -40 -1 -49 -3 -53 -8 -24 -5 25 -9 5
-14 -74 -5 -84 -4 -112 5 -118 20 -12 -13 -10 -52 3 l-32 12 6 61 c3 34 9 109
12 169 4 59 10 107 13 107 3 0 16 -3 28 -6z m3571 -146 c16 -198 17 -184 -19
-197 -39 -13 -71 -15 -51 -3 10 7 11 34 5 123 -6 87 -9 104 -14 74 -6 -37 -6
-35 -8 19 -1 56 0 58 15 40 14 -18 15 -15 11 33 -4 52 -1 58 39 62 6 1 15 -56
22 -151z m79 20 c-2 -13 -4 -5 -4 17 -1 22 1 32 4 23 2 -10 2 -28 0 -40z
m-3770 -15 c-3 -10 -5 -2 -5 17 0 19 2 27 5 18 2 -10 2 -26 0 -35z m203 -35
c0 -21 -3 -29 -10 -22 -5 5 -7 19 -4 32 9 31 14 27 14 -10z m3381 -72 c-1 -38
-4 -73 -7 -76 -3 -3 -4 25 -2 63 1 37 0 67 -4 67 -5 0 -8 12 -8 28 1 24 2 25
12 8 6 -11 10 -51 9 -90z m196 32 c-2 -13 -4 -3 -4 22 0 25 2 35 4 23 2 -13 2
-33 0 -45z m-3794 -37 c-8 -30 -9 -31 -28 -16 -11 9 -14 13 -6 9 18 -9 30 13
32 61 2 36 3 36 6 9 2 -18 0 -46 -4 -63z m204 -58 c-2 -16 -4 -3 -4 27 0 30 2
43 4 28 2 -16 2 -40 0 -55z m3407 -38 c3 -8 1 -15 -4 -15 -6 0 -10 7 -10 15 0
8 2 15 4 15 2 0 6 -7 10 -15z m-3414 -5 c0 -5 -5 -10 -11 -10 -5 0 -7 5 -4 10
3 6 8 10 11 10 2 0 4 -4 4 -10z m1570 -44 c-97 -22 -175 -76 -212 -150 l-15
-28 -23 31 c-12 18 -24 30 -26 28 -9 -9 37 -114 63 -145 l28 -32 70 20 c49 14
97 20 160 19 l90 -2 -78 -8 c-63 -7 -180 -40 -258 -73 -22 -10 -65 28 -94 82
-20 39 -24 43 -24 22 0 -14 6 -43 14 -65 14 -40 14 -40 -4 -16 -40 52 -72 204
-52 251 l10 25 1 -30 c0 -16 3 -40 6 -53 7 -23 7 -23 43 12 20 19 53 42 74 51
42 17 50 30 12 21 -44 -11 -27 2 25 19 64 21 131 33 195 33 l50 0 -55 -12z
m435 -17 c62 -19 92 -36 40 -23 -39 10 -29 -3 18 -24 23 -10 56 -33 72 -50 35
-37 44 -29 46 38 1 43 1 44 10 15 20 -60 -15 -222 -56 -264 -11 -12 -11 -8 0
25 8 21 14 50 14 64 0 22 -2 20 -19 -14 -48 -95 -67 -102 -177 -61 -50 19
-126 39 -169 44 l-79 10 110 -4 c67 -2 127 -9 154 -19 41 -15 46 -15 63 0 19
18 61 100 72 144 7 23 5 22 -22 -9 -29 -34 -30 -34 -37 -12 -11 35 -74 100
-119 124 -23 11 -66 27 -96 34 l-55 13 82 -5 c45 -3 112 -14 148 -26z m907
-160 c-16 -46 -32 -93 -36 -104 -4 -11 11 0 34 25 l43 45 -36 -72 c-20 -39
-42 -75 -48 -79 -8 -5 -10 -2 -7 7 23 56 23 53 -5 34 l-26 -17 20 54 c10 29
19 54 19 56 0 2 -16 -10 -35 -27 -39 -34 -62 -39 -71 -16 -7 18 -34 20 -34 3
0 -7 -12 -43 -26 -81 l-26 -69 -40 71 c-21 39 -36 77 -32 83 4 6 3 8 -4 4 -6
-3 -13 -2 -17 4 -4 6 23 10 77 10 66 0 93 5 133 24 49 23 135 104 135 127 0 7
2 10 5 7 3 -3 -7 -43 -23 -89z m-2307 -45 c40 -19 67 -24 133 -24 54 0 81 -4
77 -10 -4 -6 -11 -8 -16 -5 -5 3 -7 0 -4 -7 3 -7 -12 -44 -33 -81 l-39 -68
-27 70 c-15 39 -25 75 -22 80 8 13 -22 7 -36 -7 -18 -18 -30 -15 -70 18 l-37
30 9 -28 c4 -16 13 -39 19 -50 17 -32 13 -36 -14 -18 -29 19 -31 16 -8 -27 15
-30 15 -31 -1 -18 -10 8 -34 47 -53 85 l-35 71 37 -42 c43 -51 62 -56 39 -11
-18 35 -54 135 -54 151 0 5 19 -12 42 -38 24 -27 64 -58 93 -71z m392 -91 c-3
-10 -5 -2 -5 17 0 19 2 27 5 18 2 -10 2 -26 0 -35z m1410 0 c-3 -10 -5 -2 -5
17 0 19 2 27 5 18 2 -10 2 -26 0 -35z m-824 -188 c-3 -9 -8 -14 -10 -11 -3 3
-2 9 2 15 9 16 15 13 8 -4z m245 -10 c-3 -3 -9 2 -12 12 -6 14 -5 15 5 6 7 -7
10 -15 7 -18z m-80 -65 c21 -20 47 -95 55 -155 3 -26 6 -21 22 33 17 57 20 61
28 40 21 -57 28 -130 17 -183 -15 -71 -26 -77 -23 -12 3 50 2 51 -10 22 -39
-96 -79 -135 -137 -135 -51 0 -86 30 -122 104 l-30 61 5 -53 c5 -60 -7 -58
-21 4 -11 50 -6 129 12 180 l13 39 12 -53 c14 -56 31 -78 31 -39 0 41 28 118
51 143 28 29 68 31 97 4z m-305 -45 c-3 -9 -8 -14 -10 -11 -3 3 -2 9 2 15 9
16 15 13 8 -4z"/>
<path d="M5200 5303 c1 -24 14 -37 101 -96 55 -38 102 -67 104 -65 11 11 -52
81 -112 125 -96 70 -93 68 -93 36z"/>
<path d="M3913 5062 c-62 -43 -62 -44 -47 -68 16 -24 16 -24 43 -5 48 35 73
68 69 93 -3 24 -4 23 -65 -20z"/>
<path d="M5220 5082 c0 -24 10 -39 48 -71 l47 -41 17 23 c20 25 20 24 -59 81
l-53 38 0 -30z"/>
<path d="M3980 4812 c0 -5 10 -17 22 -28 l21 -19 -18 28 c-18 28 -25 33 -25
19z"/>
<path d="M5246 4865 c-9 -13 -16 -27 -16 -31 0 -10 30 17 41 38 15 27 -6 22
-25 -7z"/>
<path d="M4076 4690 c10 -15 129 -166 146 -184 5 -6 8 -6 8 0 0 5 -30 46 -66
89 -65 80 -110 127 -88 95z"/>
<path d="M5049 4609 c-41 -49 -76 -96 -78 -102 -5 -17 5 -6 79 88 82 103 83
105 78 105 -2 0 -38 -41 -79 -91z"/>
<path d="M3160 4256 c0 -2 7 -7 16 -10 8 -3 12 -2 9 4 -6 10 -25 14 -25 6z"/>
<path d="M6395 3929 c-5 -7 30 -48 87 -106 l95 -95 11 31 c11 30 10 31 -76 97
-48 37 -92 71 -99 76 -7 6 -14 5 -18 -3z"/>
<path d="M2829 3685 c-63 -64 -115 -121 -116 -128 -2 -7 4 -21 13 -32 14 -19
19 -15 135 103 119 122 119 122 103 147 -9 14 -17 25 -19 25 -1 0 -53 -52
-116 -115z"/>
<path d="M6236 3775 l-16 -25 116 -120 c64 -66 121 -120 126 -120 4 0 13 11
20 25 10 23 4 32 -102 142 -62 65 -116 119 -120 121 -4 1 -15 -9 -24 -23z"/>
<path d="M6136 3564 c-16 -41 -4 -62 87 -152 l93 -93 22 24 c12 13 22 26 22
28 0 3 -49 51 -109 107 -82 77 -110 98 -115 86z"/>
<path d="M2755 3259 c-4 -6 -5 -12 -2 -15 2 -3 7 2 10 11 7 17 1 20 -8 4z"/>
<path d="M6436 3257 c3 -10 9 -15 12 -12 3 3 0 11 -7 18 -10 9 -11 8 -5 -6z"/>
<path d="M2205 3050 c-22 -28 -40 -56 -40 -62 0 -7 108 -92 240 -189 l239
-177 53 99 c29 55 53 105 53 112 -1 18 -158 119 -166 106 -3 -6 -4 -12 -3 -13
2 -2 32 -20 66 -40 l61 -38 -46 -79 c-26 -43 -51 -79 -56 -79 -4 0 -94 60
-199 133 -105 72 -195 135 -200 138 -5 3 5 31 22 61 52 91 38 107 -24 28z"/>
<path d="M2156 2698 l-54 -83 19 -25 c10 -14 76 -83 145 -155 69 -71 112 -112
95 -90 -17 22 -78 89 -135 150 l-104 109 60 78 c54 71 64 98 37 98 -5 0 -34
-37 -63 -82z"/>
<path d="M6970 2770 c0 -6 23 -41 50 -77 28 -37 49 -70 48 -74 -2 -4 -63 -73
-137 -153 -128 -138 -135 -145 -153 -129 -24 21 -23 8 1 -23 l19 -24 151 161
152 161 -21 31 c-11 18 -35 55 -53 84 -29 48 -57 68 -57 43z"/>
</g>
</svg>
